<svg width="103" height="117" viewBox="0 0 103 117" fill="none" xmlns="http://www.w3.org/2000/svg">
<path d="M102.372 0.397217L93.0453 104.876L51.1231 116.498L9.31644 104.892L0 0.397217H102.372Z" fill="#264DE4"/>
<path d="M85.0609 98.2228L93.0309 8.94122H51.1858V107.614L85.0609 98.2228Z" fill="#2965F1"/>
<path d="M21.3577 47.6968L22.5064 60.5126H51.1858V47.6968H21.3577Z" fill="#EBEBEB"/>
<path d="M51.1858 21.7572H51.1415H19.0497L20.2147 34.5732H51.1858V21.7572Z" fill="#EBEBEB"/>
<path d="M51.1858 94.3148V80.981L51.1296 80.9959L36.8565 77.1419L35.9441 66.9207H29.0085H23.079L24.8745 87.0434L51.1268 94.3312L51.1858 94.3148Z" fill="#EBEBEB"/>
<path d="M66.9228 60.5125L65.4352 77.1337L51.1415 80.9917V94.325L77.4147 87.0434L77.6074 84.8782L80.619 51.1382L80.9317 47.6968L83.2454 21.7572H51.1415V34.5732H69.2003L68.0342 47.6968H51.1415V60.5125H66.9228Z" fill="white"/>
</svg>
