<svg width="20" height="12" viewBox="0 0 20 12" fill="none" xmlns="http://www.w3.org/2000/svg">
<path d="M20 11.5438C19.2725 11.7288 18.8225 11.5519 18.4187 10.9457L15.5475 6.97318L15.1325 6.42318L11.7794 10.9588C11.3963 11.5044 10.9944 11.7419 10.2794 11.5488L14.5731 5.78505L10.5756 0.578801C11.2631 0.445051 11.7381 0.513176 12.16 1.1288L15.1381 5.15068L18.1381 1.15068C18.5225 0.605051 18.9356 0.397551 19.6256 0.598801L18.0756 2.6538L15.9756 5.38818C15.7256 5.70068 15.76 5.91443 15.99 6.2163L20 11.5438ZM0.005 5.6888L0.35625 3.9613C1.3125 0.542551 5.23125 -0.878074 7.93375 1.23443C9.51313 2.47693 9.90562 4.23443 9.8275 6.20318H0.925C0.79125 9.74693 3.34188 11.8857 6.59375 10.7944C7.73438 10.4113 8.40625 9.51818 8.7425 8.40068C8.91312 7.84068 9.19563 7.75318 9.72188 7.91318C9.45313 9.31068 8.84687 10.4782 7.56562 11.2088C5.65125 12.3026 2.91875 11.9488 1.48125 10.4288C0.625 9.54693 0.27125 8.42943 0.1125 7.23443C0.0875 7.03693 0.0375 6.8488 0 6.65943C0.00333333 6.33609 0.005 6.01276 0.005 5.68943V5.6888ZM0.94125 5.4513H8.98625C8.93375 2.8888 7.33812 1.0688 5.1575 1.05318C2.76375 1.03443 1.045 2.8113 0.94125 5.4513V5.4513Z" fill="white"/>
</svg>
