<svg width="56" height="77" viewBox="0 0 56 77" fill="none" xmlns="http://www.w3.org/2000/svg">
<path d="M0.477966 61.6361L9.73076 2.42851C9.84387 1.70238 10.4086 1.12997 11.1331 1.00689C11.8576 0.883799 12.5796 1.23792 12.9261 1.88598L22.4951 19.7336L26.3093 12.4715C26.6046 11.91 27.187 11.5584 27.8215 11.5584C28.456 11.5584 29.0383 11.91 29.3338 12.4715L55.157 61.636H0.477966V61.6361Z" fill="#FFA000"/>
<path d="M32.444 38.5725L22.4907 19.7252L0.477966 61.6361L32.444 38.5725Z" fill="#F57C00"/>
<path d="M55.1574 61.6361L48.0704 17.7815C47.9634 17.1517 47.5139 16.6344 46.9052 16.4394C46.2966 16.2443 45.6304 16.4067 45.1784 16.8582L0.477966 61.6355L25.2119 75.5061C26.7651 76.3734 28.6567 76.3734 30.2099 75.5061L55.1574 61.6355V61.6361Z" fill="#FFCA28"/>
<path d="M48.0704 17.7815C47.9633 17.1517 47.5139 16.6344 46.9052 16.4393C46.2966 16.2443 45.6304 16.4067 45.1784 16.8582L36.3064 25.7527L29.3299 12.4712C29.0345 11.9097 28.4522 11.5581 27.8176 11.5581C27.1831 11.5581 26.6008 11.9097 26.3054 12.4712L22.4912 19.7334L12.9217 1.88599C12.5747 1.23775 11.8519 0.884205 11.1265 1.00821C10.4011 1.13221 9.83829 1.70606 9.72644 2.43276L0.477945 61.6361H0.44812L0.477945 61.6703L0.721422 61.7899L45.1655 17.2945C45.6173 16.8405 46.2851 16.6773 46.8954 16.8718C47.5056 17.0662 47.9559 17.5855 48.0619 18.2172L55.089 61.6787L55.1574 61.636L48.0705 17.7814L48.0704 17.7815ZM0.559104 61.555L9.73074 2.85146C9.84247 2.12476 10.4066 1.55091 11.1314 1.42691C11.8561 1.3029 12.579 1.65633 12.9266 2.30469L22.4951 20.1523L26.3092 12.8902C26.6046 12.3287 27.1869 11.9771 27.8215 11.9771C28.456 11.9771 29.0383 12.3287 29.3337 12.8902L36.1687 25.8894L0.558703 61.555H0.559104Z" fill="white" fill-opacity="0.2"/>
<path opacity="0.2" d="M30.2099 75.0881C28.6567 75.9553 26.7651 75.9553 25.2119 75.0881L0.537788 61.256L0.477966 61.6363L25.2119 75.5027C26.7651 76.3699 28.6567 76.3699 30.2099 75.5027L55.1573 61.6363L55.0933 61.2433L30.2099 75.0883V75.0881Z" fill="#A52714"/>
<path d="M47.9996 17.7905C47.8929 17.1609 47.4449 16.6434 46.8384 16.4496C46.232 16.2557 45.5681 16.4169 45.1177 16.8683L36.2762 25.7583L29.3246 12.483C29.0302 11.9217 28.4499 11.5702 27.8177 11.5702C27.1854 11.5702 26.6052 11.9217 26.3108 12.483L22.5094 19.742L12.9739 1.902C12.6281 1.25404 11.9078 0.900559 11.1856 1.02462C10.4633 1.14868 9.90114 1.72207 9.78981 2.4486L0.573547 61.626L25.221 75.4863C26.7688 76.3531 28.6538 76.3531 30.2016 75.4863L55.0618 61.626L47.9996 17.7904V17.7905Z" fill="url(#paint0_linear_37_152)"/>
<defs>
<linearGradient id="paint0_linear_37_152" x1="-1.32809" y1="13.7882" x2="66.6684" y2="49.6556" gradientUnits="userSpaceOnUse">
<stop stop-color="white" stop-opacity="0.1"/>
<stop offset="0.14" stop-color="white" stop-opacity="0.08"/>
<stop offset="0.61" stop-color="white" stop-opacity="0.02"/>
<stop offset="1" stop-color="white" stop-opacity="0"/>
</linearGradient>
</defs>
</svg>
