<svg width="39" height="40" viewBox="0 0 39 40" fill="none" xmlns="http://www.w3.org/2000/svg">
<path d="M27.887 14.135L27.873 14.129C27.865 14.126 27.857 14.123 27.85 14.116C27.8386 14.1037 27.8301 14.0889 27.8252 14.0727C27.8204 14.0566 27.8193 14.0396 27.822 14.023L28.595 9.29699L32.22 12.923L28.45 14.527C28.4396 14.5312 28.4283 14.5333 28.417 14.533H28.402C28.397 14.53 28.392 14.526 28.382 14.516C28.2417 14.3598 28.0739 14.2306 27.887 14.135V14.135ZM33.145 13.847L37.021 17.723C37.826 18.529 38.229 18.931 38.376 19.397C38.398 19.466 38.416 19.535 38.43 19.606L29.167 15.683C29.1621 15.6809 29.1571 15.6789 29.152 15.677C29.115 15.662 29.072 15.645 29.072 15.607C29.072 15.569 29.116 15.551 29.153 15.536L29.165 15.531L33.145 13.847ZM38.272 20.85C38.072 21.226 37.682 21.616 37.022 22.277L32.652 26.646L27 25.469L26.97 25.463C26.92 25.455 26.867 25.446 26.867 25.401C26.8456 25.1678 26.7763 24.9416 26.6636 24.7363C26.551 24.5311 26.3972 24.3512 26.212 24.208C26.189 24.185 26.195 24.149 26.202 24.116C26.202 24.111 26.202 24.106 26.204 24.102L27.267 17.576L27.271 17.554C27.277 17.504 27.286 17.446 27.331 17.446C27.5588 17.4176 27.7787 17.3443 27.9779 17.2301C28.177 17.1159 28.3515 16.9632 28.491 16.781C28.5 16.771 28.506 16.76 28.518 16.754C28.55 16.739 28.588 16.754 28.621 16.768L38.271 20.85H38.272ZM31.647 27.651L24.461 34.837L25.691 27.277L25.693 27.267C25.694 27.257 25.696 27.247 25.699 27.238C25.709 27.214 25.735 27.204 25.76 27.194L25.772 27.189C26.0413 27.0741 26.2795 26.8969 26.467 26.672C26.491 26.644 26.52 26.617 26.557 26.612C26.5666 26.6104 26.5764 26.6104 26.586 26.612L31.646 27.652L31.647 27.651ZM22.94 36.358L22.13 37.168L13.175 24.226C13.1718 24.2213 13.1685 24.2166 13.165 24.212C13.151 24.193 13.136 24.174 13.139 24.152C13.139 24.136 13.15 24.122 13.161 24.11L13.171 24.097C13.198 24.057 13.221 24.017 13.246 23.974L13.266 23.939L13.269 23.936C13.283 23.912 13.296 23.889 13.32 23.876C13.341 23.866 13.37 23.87 13.393 23.875L23.314 25.921C23.3418 25.9253 23.3679 25.9367 23.39 25.954C23.403 25.967 23.406 25.981 23.409 25.997C23.4782 26.2588 23.607 26.5011 23.7854 26.7049C23.9637 26.9088 24.1867 27.0686 24.437 27.172C24.465 27.186 24.453 27.217 24.44 27.25C24.4335 27.2644 24.4285 27.2795 24.425 27.295C24.3 28.055 23.228 34.593 22.94 36.358ZM21.248 38.049C20.651 38.64 20.299 38.953 19.901 39.079C19.5086 39.2031 19.0875 39.2031 18.695 39.079C18.229 38.931 17.826 38.529 17.021 37.723L8.02803 28.73L10.377 25.087C10.388 25.069 10.399 25.053 10.417 25.04C10.442 25.022 10.478 25.03 10.508 25.04C11.0472 25.2026 11.6261 25.1733 12.146 24.957C12.173 24.947 12.2 24.94 12.221 24.959C12.2315 24.9686 12.2409 24.9793 12.249 24.991L21.248 38.05V38.049ZM7.16103 27.863L5.09803 25.8L9.17203 24.062C9.18244 24.0574 9.19367 24.0551 9.20503 24.055C9.23903 24.055 9.25903 24.089 9.27703 24.12C9.31797 24.183 9.36134 24.2444 9.40703 24.304L9.42003 24.32C9.43203 24.337 9.42403 24.354 9.41203 24.37L7.16203 27.863H7.16103ZM4.18503 24.887L1.57503 22.277C1.13103 21.833 0.809028 21.511 0.585028 21.234L8.52103 22.88C8.531 22.8818 8.541 22.8835 8.55103 22.885C8.60003 22.893 8.65403 22.902 8.65403 22.948C8.65403 22.998 8.59503 23.021 8.54503 23.04L8.52203 23.05L4.18503 24.887ZM0.129028 19.892C0.138072 19.7239 0.168312 19.5575 0.219028 19.397C0.367028 18.931 0.769028 18.529 1.57503 17.723L4.91503 14.383C6.45286 16.6149 7.99486 18.8439 9.54103 21.07C9.56803 21.106 9.59803 21.146 9.56703 21.176C9.42103 21.337 9.27503 21.513 9.17203 21.704C9.16085 21.7285 9.14365 21.7499 9.12203 21.766C9.10903 21.774 9.09503 21.771 9.08003 21.768H9.07803L0.129028 19.891V19.892ZM5.80903 13.489L10.298 8.99799C10.721 9.18299 12.258 9.83199 13.631 10.412C14.671 10.852 15.619 11.252 15.917 11.382C15.947 11.394 15.974 11.406 15.987 11.436C15.995 11.454 15.991 11.477 15.987 11.496C15.9159 11.8202 15.9265 12.1569 16.0178 12.476C16.1091 12.7951 16.2782 13.0865 16.51 13.324C16.54 13.354 16.51 13.397 16.484 13.434L16.47 13.455L11.91 20.518C11.898 20.538 11.887 20.555 11.867 20.568C11.843 20.583 11.809 20.576 11.781 20.569C11.6037 20.5225 11.4213 20.4977 11.238 20.495C11.074 20.495 10.896 20.525 10.716 20.558H10.715C10.695 20.561 10.677 20.565 10.661 20.553C10.6434 20.5385 10.6282 20.5213 10.616 20.502L5.80803 13.489H5.80903ZM11.207 8.09099L17.021 2.27699C17.826 1.47199 18.229 1.06899 18.695 0.921986C19.0875 0.797896 19.5086 0.797896 19.901 0.921986C20.367 1.06899 20.77 1.47199 21.575 2.27699L22.835 3.53699L18.7 9.94099C18.6898 9.95963 18.6758 9.97597 18.659 9.98899C18.634 10.006 18.599 9.99899 18.569 9.98899C18.243 9.89005 17.8978 9.87204 17.5633 9.93651C17.2287 10.001 16.9149 10.146 16.649 10.359C16.622 10.387 16.582 10.371 16.548 10.356C16.008 10.121 11.808 8.34599 11.207 8.09099V8.09099ZM23.713 4.41499L27.531 8.23299L26.611 13.931V13.946C26.6102 13.959 26.6075 13.9718 26.603 13.984C26.593 14.004 26.573 14.008 26.553 14.014C26.3563 14.0736 26.1711 14.1659 26.005 14.287C25.9979 14.2921 25.9912 14.2978 25.985 14.304C25.974 14.316 25.963 14.327 25.945 14.329C25.9304 14.3294 25.9158 14.3271 25.902 14.322L20.084 11.85L20.073 11.845C20.036 11.83 19.992 11.812 19.992 11.774C19.9578 11.4498 19.8519 11.1372 19.682 10.859C19.654 10.813 19.623 10.765 19.647 10.718L23.713 4.41499ZM19.781 13.021L25.235 15.331C25.265 15.345 25.298 15.358 25.311 15.389C25.3162 15.4076 25.3162 15.4273 25.311 15.446C25.295 15.526 25.281 15.617 25.281 15.709V15.862C25.281 15.9 25.242 15.916 25.206 15.931L25.195 15.935C24.331 16.304 13.065 21.108 13.048 21.108C13.031 21.108 13.013 21.108 12.996 21.091C12.966 21.061 12.996 21.019 13.023 20.981C13.0278 20.9744 13.0325 20.9677 13.037 20.961L17.519 14.021L17.527 14.009C17.553 13.967 17.583 13.92 17.631 13.92L17.676 13.927C17.778 13.941 17.868 13.954 17.959 13.954C18.639 13.954 19.269 13.623 19.649 13.057C19.6581 13.0419 19.6696 13.0284 19.683 13.017C19.71 12.997 19.75 13.007 19.781 13.021V13.021ZM13.535 22.206L25.815 16.969C25.815 16.969 25.833 16.969 25.85 16.986C25.917 17.053 25.974 17.098 26.029 17.14L26.056 17.157C26.081 17.171 26.106 17.187 26.108 17.213C26.108 17.223 26.108 17.229 26.106 17.238L25.054 23.7L25.05 23.726C25.043 23.776 25.036 23.833 24.989 23.833C24.7086 23.8519 24.4369 23.9389 24.1977 24.0865C23.9584 24.2341 23.7588 24.4378 23.616 24.68L23.611 24.688C23.597 24.711 23.584 24.733 23.561 24.745C23.54 24.755 23.513 24.751 23.491 24.746L13.698 22.726C13.688 22.724 13.546 22.207 13.535 22.206V22.206Z" fill="url(#paint0_radial_37_164)"/>
<defs>
<radialGradient id="paint0_radial_37_164" cx="0" cy="0" r="1" gradientUnits="userSpaceOnUse" gradientTransform="translate(-1.1569 19.4595) rotate(90) scale(38.3009 44.2199)">
<stop stop-color="#20C6B7"/>
<stop offset="1" stop-color="#4D9ABF"/>
</radialGradient>
</defs>
</svg>
