<svg width="111" height="110" viewBox="0 0 111 110" fill="none" xmlns="http://www.w3.org/2000/svg">
<path d="M54.8125 0C26.7808 2e-06 28.5312 12.1562 28.5312 12.1562L28.5625 24.75H55.3125V28.5312H17.9375C17.9375 28.5312 0 26.497 0 54.7812C-2e-06 83.0655 15.6562 82.0625 15.6562 82.0625H25V68.9375C25 68.9375 24.4963 53.2812 40.4062 53.2812C56.3161 53.2812 66.9375 53.2812 66.9375 53.2812C66.9375 53.2812 81.8438 53.5222 81.8438 38.875C81.8438 24.2278 81.8438 14.6562 81.8438 14.6562C81.8438 14.6562 84.1069 0 54.8125 0ZM40.0625 8.46875C42.7239 8.46875 44.875 10.6198 44.875 13.2812C44.875 15.9427 42.7239 18.0938 40.0625 18.0938C37.4011 18.0938 35.25 15.9427 35.25 13.2812C35.25 10.6198 37.4011 8.46875 40.0625 8.46875Z" fill="url(#paint0_linear_34_63)"/>
<path d="M55.6086 109.846C83.6403 109.846 81.8898 97.6898 81.8898 97.6898L81.8586 85.0961H55.1086V81.3148H92.4836C92.4836 81.3148 110.421 83.3491 110.421 55.0648C110.421 26.7806 94.7648 27.7836 94.7648 27.7836H85.4211V40.9086C85.4211 40.9086 85.9248 56.5648 70.0148 56.5648C54.1049 56.5648 43.4836 56.5648 43.4836 56.5648C43.4836 56.5648 28.5773 56.3239 28.5773 70.9711C28.5773 85.6183 28.5773 95.1898 28.5773 95.1898C28.5773 95.1898 26.3142 109.846 55.6086 109.846ZM70.3586 101.377C67.6972 101.377 65.5461 99.2263 65.5461 96.5648C65.5461 93.9034 67.6972 91.7523 70.3586 91.7523C73.02 91.7523 75.1711 93.9034 75.1711 96.5648C75.1711 99.2263 73.02 101.377 70.3586 101.377Z" fill="url(#paint1_linear_34_63)"/>
<defs>
<linearGradient id="paint0_linear_34_63" x1="10.6117" y1="9.60153" x2="65.2117" y2="64.3842" gradientUnits="userSpaceOnUse">
<stop stop-color="#387EB8"/>
<stop offset="1" stop-color="#366994"/>
</linearGradient>
<linearGradient id="paint1_linear_34_63" x1="44.1992" y1="44.4518" x2="102.84" y2="100.632" gradientUnits="userSpaceOnUse">
<stop stop-color="#FFE052"/>
<stop offset="1" stop-color="#FFC331"/>
</linearGradient>
</defs>
</svg>
