<svg width="135" height="102" viewBox="0 0 135 102" fill="none" xmlns="http://www.w3.org/2000/svg">
<path d="M116.214 58.1077C111.494 58.1343 107.407 59.2679 103.979 60.9558C102.713 58.4507 101.448 56.2618 101.237 54.6271C101 52.7285 100.709 51.568 101 49.3005C101.289 47.0325 102.608 43.8154 102.608 43.5517C102.581 43.3144 102.317 42.1541 99.6017 42.1277C96.8859 42.1014 94.5388 42.6551 94.2751 43.3671C94.0114 44.0791 93.484 45.714 93.1412 47.4016C92.6665 49.8804 87.7091 58.6614 84.8875 63.2761C83.9646 61.4829 83.1735 59.9008 83.015 58.6348C82.778 56.7364 82.4876 55.5759 82.778 53.3084C83.068 51.0404 84.3865 47.8235 84.3865 47.5599C84.3601 47.3225 84.0964 46.1623 81.3806 46.1359C78.6643 46.1095 76.3177 46.6633 76.054 47.3753C75.7903 48.0872 75.5002 49.7749 74.9201 51.4098C74.3661 53.0447 67.7737 67.7061 66.0597 71.5297C65.1895 73.4811 64.4251 75.0369 63.871 76.0916C63.3173 77.1464 63.8447 76.1708 63.7919 76.2762C63.3173 77.1728 63.0536 77.6738 63.0536 77.6738V77.7004C62.6844 78.3597 62.2889 78.9923 62.104 78.9923C61.9722 78.9923 61.7085 77.2255 62.1568 74.7998C63.1324 69.7102 65.5057 61.7733 65.4796 61.4832C65.4796 61.3514 65.9276 59.9535 63.9499 59.2418C62.0249 58.5298 61.3396 59.7165 61.1811 59.7165C61.0229 59.7165 60.891 60.1384 60.891 60.1384C60.891 60.1384 63.0269 51.1994 56.8037 51.1994C52.9011 51.1994 47.5217 55.4449 44.8584 59.3212C43.1707 60.2441 39.5845 62.1952 35.7873 64.2786C34.3369 65.0697 32.8339 65.9135 31.4099 66.6783L31.1201 66.3613C23.5785 58.3186 9.62899 52.6228 10.2091 41.8113C10.4201 37.8822 11.7913 27.519 37.0008 14.9672C57.6481 4.68306 74.1818 7.5046 77.0558 13.7805C81.1431 22.7462 68.222 39.4117 46.7575 41.8113C38.583 42.7342 34.2845 39.5699 33.2036 38.3833C32.0697 37.1439 31.9115 37.0912 31.4896 37.3285C30.804 37.6977 31.2259 38.8052 31.4896 39.4644C32.1224 41.1257 34.7594 44.0791 39.2422 45.5558C43.171 46.8479 52.7697 47.5599 64.3723 43.077C77.3725 38.0405 87.5247 24.0646 84.545 12.383C81.5125 0.490313 61.7881 -3.41237 43.1449 3.20637C32.0431 7.16179 20.0186 13.3323 11.3694 21.4277C1.08528 31.0262 -0.549629 39.4117 0.135978 42.8925C2.53587 55.3125 19.6494 63.4079 26.5055 69.3938C26.1627 69.5781 25.8462 69.7627 25.5562 69.9212C22.1281 71.6086 9.07524 78.4385 5.80542 85.6635C2.11369 93.838 6.38555 99.7187 9.23345 100.51C18.0409 102.962 27.0592 98.5585 31.9376 91.3068C36.7893 84.0552 36.2094 74.6413 33.968 70.3431L33.8887 70.1849L36.5784 68.6027C38.319 67.5743 40.033 66.625 41.5358 65.8073C40.6923 68.1014 40.0855 70.8175 39.7693 74.7729C39.4001 79.4142 41.2988 85.4262 43.8039 87.7994C44.9114 88.8276 46.2298 88.8542 47.0473 88.8542C49.9479 88.8542 51.2664 86.4543 52.7167 83.5803C54.5099 80.0732 56.092 76.0123 56.092 76.0123C56.092 76.0123 54.1143 87.0084 59.5201 87.0084C61.4978 87.0084 63.4755 84.4505 64.3721 83.132V83.1584C64.3721 83.1584 64.4248 83.0793 64.5303 82.8947C64.6409 82.7311 64.7464 82.5641 64.8467 82.394V82.3412C65.6378 80.97 67.4045 77.832 70.0415 72.6372C73.4429 65.9394 76.713 57.5539 76.713 57.5539C76.713 57.5539 77.0294 59.6107 78.0051 62.986C78.585 64.9904 79.8507 67.1788 80.8264 69.3147C80.0353 70.4222 79.5606 71.0553 79.5606 71.0553L79.587 71.0817C78.9544 71.9255 78.2421 72.8224 77.5041 73.7187C74.8144 76.9357 71.5973 80.6014 71.1754 81.6561C70.6744 82.8952 70.7798 83.8182 71.7555 84.5568C72.4675 85.0842 73.7332 85.1894 75.0781 85.0842C77.5041 84.9257 79.1917 84.3195 80.0355 83.95C81.354 83.4754 82.8571 82.7634 84.3074 81.7086C86.9443 79.7575 88.5529 76.9887 88.3947 73.297C88.3156 71.2666 87.6563 69.2625 86.8389 67.3639C87.0762 67.0211 87.3138 66.678 87.5508 66.3091C91.7172 60.2175 94.9343 53.5199 94.9343 53.5199C94.9343 53.5199 95.2507 55.5767 96.2264 58.952C96.7272 60.666 97.7295 62.5385 98.626 64.3844C94.7233 67.5751 92.271 71.2668 91.4272 73.6928C89.8714 78.1756 91.0844 80.2061 93.3785 80.6807C94.4066 80.8917 95.8836 80.417 96.9909 79.9424C98.3621 79.4941 100.023 78.7291 101.553 77.5955C104.19 75.6442 106.721 72.9281 106.59 69.2627C106.511 67.5751 106.062 65.9138 105.456 64.3316C108.778 62.9604 113.076 62.1693 118.535 62.8286C130.269 64.1998 132.59 71.5305 132.142 74.5894C131.694 77.6485 129.241 79.3359 128.424 79.8633C127.606 80.3643 127.342 80.5491 127.422 80.9181C127.527 81.4721 127.896 81.4454 128.608 81.3402C129.584 81.1818 134.779 78.8351 134.99 73.1923C135.306 65.9397 128.424 58.0288 116.214 58.1077V58.1077ZM25.7144 88.6172C21.8381 92.8626 16.3796 94.4712 14.0591 93.1C11.554 91.6496 12.5294 85.4001 17.3025 80.8909C20.2032 78.1485 23.974 75.617 26.4527 74.0612C27.0065 73.7184 27.8503 73.2176 28.8524 72.6109C29.0106 72.5057 29.116 72.4527 29.116 72.4527C29.3006 72.3472 29.5116 72.2153 29.7225 72.0835C31.4893 78.5176 29.8017 84.1607 25.7144 88.6172V88.6172ZM54.0616 69.3411C52.7167 72.6372 49.8688 81.1018 48.1548 80.6272C46.6779 80.2317 45.7816 73.8239 47.8645 67.4952C48.9193 64.3042 51.1607 60.5073 52.4792 59.0303C54.6153 56.6571 56.9356 55.866 57.516 56.8416C58.2016 58.1076 54.9054 67.2842 54.0616 69.3411ZM77.4513 80.5217C76.8712 80.812 76.3438 81.0227 76.1065 80.8648C75.9219 80.7593 76.3435 80.3638 76.3435 80.3638C76.3435 80.3638 79.2706 77.2258 80.4308 75.7755C81.09 74.9319 81.8811 73.9562 82.725 72.8485V73.1649C82.7252 76.9618 79.0862 79.4933 77.4513 80.5217ZM95.4878 76.4081C95.0659 76.0916 95.1189 75.116 96.5426 72.0571C97.0966 70.8441 98.3621 68.8137 100.551 66.8887C100.814 67.6798 100.973 68.4442 100.946 69.1565C100.92 73.903 97.5449 75.6697 95.4878 76.4081Z" fill="#CF649A"/>
</svg>
