<svg width="74" height="40" viewBox="0 0 74 40" fill="none" xmlns="http://www.w3.org/2000/svg">
<path d="M56.2799 33.6253C65.241 24.6647 66.7304 11.6263 59.6062 4.50263C52.4831 -2.62022 39.4452 -1.13114 30.4846 7.82898C21.5239 16.7894 24.116 33.9084 27.1588 36.9517C29.6175 39.4104 47.3197 42.5854 56.2799 33.6253Z" fill="#F89939"/>
<path d="M19.5107 20.6774C14.3122 15.4789 6.74671 14.6134 2.6126 18.7473C-1.52046 22.8806 -0.656329 30.4471 4.54326 35.6449C9.74285 40.845 19.6761 39.3408 21.4403 37.575C22.868 36.1497 24.7109 25.8765 19.5107 20.6774Z" fill="#3499CD"/>
<path d="M37.4476 31.429C36.5293 32.2744 35.7236 32.8983 35.0312 33.2991C34.3388 33.7013 33.6784 33.9021 33.05 33.9021C32.3271 33.9021 31.744 33.6219 31.3019 33.0612C30.859 32.5001 30.6383 31.7476 30.6383 30.8009C30.6383 29.3825 30.9458 27.6796 31.5606 25.6942C32.1745 23.7072 32.9219 21.8762 33.7998 20.2012L36.3739 19.2481C36.4546 19.2212 36.516 19.2074 36.5568 19.2074C36.752 19.2074 36.9134 19.3513 37.0373 19.6379C37.1624 19.9257 37.2254 20.3126 37.2254 20.7989C37.2254 22.1771 36.9081 23.5114 36.2723 24.8017C35.6368 26.0926 34.6441 27.4703 33.2931 28.9364C33.2389 29.6391 33.2119 30.1217 33.2119 30.3855C33.2119 30.9737 33.3199 31.4391 33.536 31.7838C33.7525 32.1291 34.0393 32.3006 34.3975 32.3006C34.7629 32.3006 35.151 32.1699 35.5633 31.9063C35.9747 31.6423 36.6031 31.0957 37.4474 30.2641V31.429H37.4476ZM33.5667 27.4674C34.4245 26.5136 35.1211 25.4439 35.6545 24.2604C36.1879 23.0764 36.4544 22.058 36.4544 21.2047C36.4544 20.956 36.4176 20.7539 36.3438 20.602C36.2694 20.4499 36.1742 20.3734 36.0596 20.3734C35.8106 20.3734 35.4468 20.9957 34.9703 22.2406C34.4938 23.4852 34.026 25.2277 33.5667 27.4674V27.4674Z" fill="#010101"/>
<path d="M45.0285 31.429C44.1707 32.2744 43.4007 32.8983 42.7181 33.2991C42.0355 33.7013 41.283 33.9021 40.4583 33.9021C39.5394 33.9021 38.798 33.6081 38.2332 33.021C37.6693 32.4323 37.3878 31.6595 37.3878 30.6998C37.3878 29.2679 37.8839 27.9722 38.8782 26.8136C39.8704 25.6545 40.9721 25.0753 42.1813 25.0753C42.8097 25.0753 43.3124 25.238 43.6913 25.5621C44.0696 25.8868 44.2588 26.312 44.2588 26.839C44.2588 28.2379 42.7726 29.3722 39.8 30.244C40.0699 31.5608 40.7758 32.2201 41.9177 32.2201C42.3638 32.2201 42.789 32.1003 43.1941 31.8611C43.6002 31.6208 44.2112 31.088 45.0287 30.2643V31.429H45.0285ZM39.7183 29.5547C41.4473 29.0679 42.3125 28.1699 42.3125 26.8591C42.3125 26.2106 42.0757 25.8865 41.6034 25.8865C41.1573 25.8865 40.7322 26.2255 40.3271 26.9052C39.9207 27.5838 39.7183 28.4665 39.7183 29.5547V29.5547Z" fill="#010101"/>
<path d="M55.8515 31.429C54.7704 32.4559 53.9968 33.1255 53.5311 33.4367C53.0649 33.7473 52.6191 33.9023 52.1931 33.9023C51.1255 33.9023 50.6226 32.9602 50.6832 31.075C50.0077 32.0407 49.3841 32.7535 48.8131 33.2139C48.2426 33.6732 47.6534 33.9023 47.0446 33.9023C46.4509 33.9023 45.9461 33.6243 45.5299 33.0668C45.1137 32.5093 44.907 31.8256 44.907 31.0141C44.907 30.0013 45.1851 29.0351 45.7421 28.1156C46.3001 27.1967 47.0144 26.4543 47.8857 25.8868C48.757 25.3193 49.528 25.0351 50.1961 25.0351C51.0409 25.0351 51.6322 25.4238 51.9701 26.2003L54.0413 25.0557H54.6096L53.715 28.0246C53.2557 29.5182 53.0253 30.5419 53.0253 31.0956C53.0253 31.6764 53.2308 31.9669 53.6433 31.9669C53.9058 31.9669 54.1963 31.8269 54.5141 31.5462C54.8318 31.2655 55.2769 30.8382 55.851 30.2641V31.429H55.8515ZM48.4334 31.987C49.1089 31.987 49.7455 31.4113 50.3445 30.2596C50.9425 29.1073 51.2412 28.0442 51.2412 27.0716C51.2412 26.6938 51.156 26.3977 50.988 26.1852C50.8184 25.9717 50.5921 25.8659 50.309 25.8659C49.633 25.8659 48.9922 26.44 48.3887 27.5888C47.7841 28.7377 47.4812 29.7949 47.4812 30.7601C47.4812 31.1255 47.5711 31.4211 47.75 31.6476C47.9288 31.874 48.1559 31.987 48.4334 31.987V31.987Z" fill="#010101"/>
<path d="M63.422 31.429C61.726 33.0909 60.4185 33.9225 59.4998 33.9225C59.0874 33.9225 58.7392 33.7484 58.4561 33.4015C58.173 33.0533 58.0304 32.6223 58.0304 32.1085C58.0304 31.156 58.541 29.8796 59.561 28.2781C59.0606 28.535 58.514 28.7133 57.9192 28.8149C57.48 29.6256 56.7905 30.4974 55.8518 31.4288H55.6192V30.5178C56.1457 29.9706 56.6222 29.3825 57.0479 28.7541C56.4661 28.4972 56.1762 28.1154 56.1762 27.6095C56.1762 27.0885 56.3529 26.5332 56.7085 25.9413C57.063 25.3508 57.5509 25.0555 58.173 25.0555C58.7 25.0555 58.963 25.3248 58.963 25.8656C58.963 26.2913 58.8111 26.8991 58.5066 27.6899C59.6279 27.568 60.6077 26.7107 61.4459 25.1158L62.3677 25.0751L61.4252 27.6693C61.0336 28.7639 60.7802 29.5095 60.6656 29.9042C60.551 30.299 60.4931 30.6493 60.4931 30.9528C60.4931 31.2369 60.5592 31.4639 60.6905 31.6317C60.8222 31.8018 61 31.8854 61.2228 31.8854C61.4657 31.8854 61.6993 31.8024 61.9221 31.6378C62.1449 31.4708 62.6449 31.0136 63.4223 30.2638V31.429H63.422Z" fill="#010101"/>
<path d="M73.3741 31.429C71.8136 33.0784 70.4751 33.9024 69.3609 33.9024C68.9082 33.9024 68.5433 33.7436 68.2663 33.4258C67.9888 33.1086 67.8504 32.6832 67.8504 32.1495C67.8504 31.4266 68.148 30.3218 68.7428 28.8361C69.0601 28.0387 69.2193 27.5312 69.2193 27.3158C69.2193 27.0994 69.1341 26.9912 68.9661 26.9912C68.8717 26.9912 68.746 27.0388 68.591 27.1327C68.4483 27.2272 68.283 27.36 68.0938 27.5285C67.9253 27.6836 67.7356 27.8728 67.5263 28.095C67.3434 28.2858 67.1474 28.5017 66.9392 28.744L66.3708 29.4034C66.1213 29.7071 65.9658 30.0275 65.9052 30.3657C65.8033 30.9398 65.7361 31.4674 65.702 31.9476C65.6813 32.3048 65.6715 32.7874 65.6715 33.3967L63.4319 33.9227C63.358 33.0107 63.3202 32.3315 63.3202 31.8862C63.3202 30.7985 63.4469 29.768 63.7007 28.7954C63.9539 27.8217 64.3605 26.7279 64.9217 25.5114L67.394 25.0354C66.8741 26.4342 66.533 27.5349 66.3708 28.3384C67.4789 27.1023 68.3573 26.2466 69.0085 25.7696C69.6586 25.2931 70.2375 25.056 70.7433 25.056C71.087 25.056 71.3744 25.1857 71.6032 25.4452C71.8332 25.705 71.9475 26.0313 71.9475 26.4213C71.9475 27.0692 71.6569 28.1368 71.0767 29.6238C70.6777 30.6435 70.4782 31.3052 70.4782 31.6108C70.4782 32.0175 70.6441 32.2207 70.9759 32.2207C71.4699 32.2207 72.27 31.5685 73.3741 30.2646V31.429Z" fill="#010101"/>
<path d="M45.2989 19.1443C45.2989 19.0648 45.281 18.9912 45.2452 18.9236C45.2114 18.854 45.1408 18.7914 45.0335 18.7358C44.9281 18.6781 44.7691 18.6284 44.5564 18.5867C44.3775 18.5489 44.2155 18.5042 44.0704 18.4525C43.9273 18.4008 43.805 18.3382 43.7037 18.2647C43.6043 18.1911 43.5278 18.1047 43.4741 18.0053C43.4204 17.9059 43.3936 17.7896 43.3936 17.6564C43.3936 17.5292 43.4214 17.4089 43.4771 17.2956C43.5347 17.1823 43.6152 17.0819 43.7186 16.9945C43.8239 16.907 43.9502 16.8384 44.0973 16.7887C44.2443 16.7391 44.4083 16.7142 44.5892 16.7142C44.8476 16.7142 45.0683 16.7599 45.2512 16.8514C45.434 16.9428 45.5742 17.065 45.6716 17.2181C45.769 17.3692 45.8177 17.5371 45.8177 17.722H45.2661C45.2661 17.6326 45.2392 17.5461 45.1856 17.4626C45.1339 17.3771 45.0573 17.3066 44.956 17.2509C44.8566 17.1952 44.7343 17.1674 44.5892 17.1674C44.4362 17.1674 44.3119 17.1913 44.2165 17.239C44.1231 17.2847 44.0545 17.3433 44.0108 17.4149C43.969 17.4865 43.9482 17.562 43.9482 17.6415C43.9482 17.7011 43.9581 17.7548 43.978 17.8025C43.9999 17.8482 44.0376 17.891 44.0913 17.9307C44.145 17.9685 44.2205 18.0043 44.3179 18.0381C44.4153 18.0719 44.5395 18.1056 44.6906 18.1394C44.955 18.1991 45.1726 18.2706 45.3436 18.3541C45.5145 18.4376 45.6418 18.54 45.7252 18.6612C45.8087 18.7825 45.8505 18.9296 45.8505 19.1025C45.8505 19.2437 45.8207 19.3729 45.761 19.4901C45.7034 19.6074 45.6189 19.7088 45.5076 19.7943C45.3983 19.8778 45.2671 19.9433 45.114 19.9911C44.9629 20.0368 44.793 20.0596 44.6041 20.0596C44.3199 20.0596 44.0794 20.0089 43.8826 19.9076C43.6858 19.8062 43.5367 19.675 43.4353 19.514C43.3339 19.353 43.2833 19.183 43.2833 19.0041H43.8378C43.8458 19.1552 43.8895 19.2755 43.969 19.3649C44.0486 19.4524 44.146 19.515 44.2612 19.5528C44.3765 19.5885 44.4908 19.6064 44.6041 19.6064C44.7552 19.6064 44.8814 19.5865 44.9828 19.5468C45.0862 19.507 45.1647 19.4524 45.2184 19.3828C45.272 19.3132 45.2989 19.2337 45.2989 19.1443ZM47.8661 19.6064C47.9973 19.6064 48.1185 19.5796 48.2298 19.5259C48.3412 19.4722 48.4326 19.3987 48.5042 19.3053C48.5757 19.2099 48.6165 19.1015 48.6264 18.9803H49.1512C49.1412 19.1711 49.0766 19.349 48.9574 19.514C48.8401 19.677 48.686 19.8092 48.4952 19.9106C48.3044 20.0099 48.0947 20.0596 47.8661 20.0596C47.6236 20.0596 47.4119 20.0169 47.231 19.9314C47.0521 19.8459 46.903 19.7287 46.7837 19.5796C46.6665 19.4305 46.578 19.2596 46.5184 19.0667C46.4607 18.8719 46.4319 18.6662 46.4319 18.4495V18.3243C46.4319 18.1076 46.4607 17.9029 46.5184 17.7101C46.578 17.5153 46.6665 17.3433 46.7837 17.1943C46.903 17.0452 47.0521 16.9279 47.231 16.8424C47.4119 16.7569 47.6236 16.7142 47.8661 16.7142C48.1185 16.7142 48.3392 16.7659 48.528 16.8693C48.7168 16.9706 48.8649 17.1098 48.9723 17.2867C49.0816 17.4616 49.1412 17.6604 49.1512 17.883H48.6264C48.6165 17.7498 48.5787 17.6296 48.5131 17.5222C48.4495 17.4149 48.362 17.3294 48.2507 17.2658C48.1414 17.2002 48.0132 17.1674 47.8661 17.1674C47.6971 17.1674 47.555 17.2012 47.4397 17.2688C47.3264 17.3344 47.236 17.4238 47.1684 17.5371C47.1028 17.6485 47.0551 17.7727 47.0252 17.9099C46.9974 18.045 46.9835 18.1832 46.9835 18.3243V18.4495C46.9835 18.5907 46.9974 18.7298 47.0252 18.867C47.0531 19.0041 47.0998 19.1284 47.1654 19.2397C47.233 19.351 47.3234 19.4404 47.4367 19.508C47.552 19.5736 47.6951 19.6064 47.8661 19.6064ZM50.3707 16.7738V20H49.8161V16.7738H50.3707ZM49.7743 15.9181C49.7743 15.8287 49.8012 15.7531 49.8548 15.6915C49.9105 15.6299 49.992 15.5991 50.0993 15.5991C50.2047 15.5991 50.2852 15.6299 50.3409 15.6915C50.3985 15.7531 50.4273 15.8287 50.4273 15.9181C50.4273 16.0036 50.3985 16.0771 50.3409 16.1387C50.2852 16.1984 50.2047 16.2282 50.0993 16.2282C49.992 16.2282 49.9105 16.1984 49.8548 16.1387C49.8012 16.0771 49.7743 16.0036 49.7743 15.9181ZM51.8108 15.4202V20H51.2562V15.4202H51.8108ZM53.7817 16.7738L52.3744 18.2796L51.5872 19.0966L51.5425 18.5092L52.106 17.8353L53.1078 16.7738H53.7817ZM53.2778 20L52.1269 18.4615L52.4131 17.9695L53.9278 20H53.2778ZM54.9505 16.7738V20H54.3959V16.7738H54.9505ZM54.3542 15.9181C54.3542 15.8287 54.381 15.7531 54.4347 15.6915C54.4903 15.6299 54.5718 15.5991 54.6792 15.5991C54.7845 15.5991 54.865 15.6299 54.9207 15.6915C54.9783 15.7531 55.0072 15.8287 55.0072 15.9181C55.0072 16.0036 54.9783 16.0771 54.9207 16.1387C54.865 16.1984 54.7845 16.2282 54.6792 16.2282C54.5718 16.2282 54.4903 16.1984 54.4347 16.1387C54.381 16.0771 54.3542 16.0036 54.3542 15.9181ZM57.1868 16.7738V17.1972H55.4425V16.7738H57.1868ZM56.0329 15.9897H56.5845V19.2009C56.5845 19.3102 56.6014 19.3927 56.6352 19.4484C56.6689 19.504 56.7127 19.5408 56.7663 19.5587C56.82 19.5766 56.8777 19.5855 56.9393 19.5855C56.985 19.5855 57.0327 19.5816 57.0824 19.5736C57.1341 19.5637 57.1728 19.5557 57.1987 19.5498L57.2017 20C57.1579 20.0139 57.1003 20.0268 57.0287 20.0388C56.9592 20.0527 56.8747 20.0596 56.7753 20.0596C56.6401 20.0596 56.5159 20.0328 56.4026 19.9791C56.2893 19.9255 56.1988 19.836 56.1313 19.7108C56.0657 19.5836 56.0329 19.4126 56.0329 19.1979V15.9897Z" fill="white"/>
</svg>
